<svg width="205" height="145" viewBox="0 0 205 145" fill="none" xmlns="http://www.w3.org/2000/svg">
<path d="M61.696 39.744C60.5653 38.1653 59.7547 37.184 59.264 36.8C58.7733 36.416 58.304 36.224 57.856 36.224C56.5973 36.224 55.3493 37.0133 54.112 38.592C52.896 40.1493 52.288 41.5573 52.288 42.816C52.288 44.1813 53.1413 44.864 54.848 44.864C55.744 44.864 56.8107 44.448 58.048 43.616C59.3067 42.7627 60.5227 41.472 61.696 39.744ZM64.192 38.016C64.4053 38.4 64.704 39.008 65.088 39.84C65.472 40.672 65.8133 41.3653 66.112 41.92C66.4107 42.4533 66.7947 43.0293 67.264 43.648C68.224 44.8853 69.5787 45.504 71.328 45.504C73.0987 45.504 74.784 45.0027 76.384 44C77.984 42.9973 79.3067 41.7067 80.352 40.128C81.4187 38.528 82.2507 36.768 82.848 34.848C83.4667 32.928 83.776 31.04 83.776 29.184C83.776 23.1253 80.9387 19.52 75.264 18.368C73.4933 21.888 71.52 25.6 69.344 29.504C67.1893 33.3867 65.472 36.224 64.192 38.016ZM58.88 26.048C58.88 26.304 58.944 26.6027 59.072 26.944C59.072 27.0293 58.9973 27.072 58.848 27.072C58.6987 27.072 58.496 26.944 58.24 26.688C57.984 26.432 57.7707 26.24 57.6 26.112C57.2587 25.856 57.088 25.6 57.088 25.344C57.088 23.872 57.8133 22.5067 59.264 21.248C60.736 19.9893 62.5173 19.0293 64.608 18.368C66.6987 17.6853 68.7787 17.344 70.848 17.344C71.7867 17.344 72.4693 17.3653 72.896 17.408C73.1093 16.9173 73.216 16.448 73.216 16C73.216 15.104 72.96 14.464 72.448 14.08C71.9573 13.696 71.264 13.504 70.368 13.504C69.4933 13.504 68.7147 13.6427 68.032 13.92C67.3707 14.1973 66.8267 14.4747 66.4 14.752C65.9947 15.0293 65.7707 15.168 65.728 15.168C65.6 15.168 65.536 15.104 65.536 14.976C65.536 14.8907 65.7707 14.6773 66.24 14.336C66.7093 13.9947 67.4027 13.6427 68.32 13.28C69.2373 12.9173 70.1013 12.736 70.912 12.736C71.744 12.736 72.48 12.8213 73.12 12.992C73.76 13.1413 74.3573 13.4827 74.912 14.016C75.488 14.528 75.776 15.2107 75.776 16.064C75.776 16.5333 75.6693 17.088 75.456 17.728C82.8373 18.944 86.528 23.2747 86.528 30.72C86.528 32.7253 86.1227 34.688 85.312 36.608C84.5013 38.528 83.4133 40.2027 82.048 41.632C80.6827 43.04 79.0507 44.1813 77.152 45.056C75.2747 45.9093 73.3227 46.336 71.296 46.336C69.8027 46.336 68.3947 46.0373 67.072 45.44C66.6027 45.2267 66.0693 44.8427 65.472 44.288C64.896 43.712 64.448 43.2427 64.128 42.88C63.8293 42.5173 63.4667 42.0693 63.04 41.536C62.6347 40.9813 62.3787 40.64 62.272 40.512C61.1413 41.792 60.128 42.816 59.232 43.584C58.336 44.3307 57.344 44.96 56.256 45.472C55.1893 45.9627 54.2613 46.208 53.472 46.208C52.6827 46.208 51.9893 46.016 51.392 45.632C50.7947 45.248 50.496 44.6507 50.496 43.84C50.496 43.0293 50.8267 42.0693 51.488 40.96C52.1493 39.8293 52.9493 38.7947 53.888 37.856C54.8267 36.896 55.8613 36.0853 56.992 35.424C58.144 34.7627 59.1573 34.432 60.032 34.432C61.1413 34.432 62.272 35.2427 63.424 36.864C65.344 33.472 67.1467 30.0267 68.832 26.528C70.5173 23.008 71.7867 20.16 72.64 17.984C72.2133 17.9413 71.552 17.92 70.656 17.92C68.9067 17.92 67.1147 18.3147 65.28 19.104C63.4453 19.872 61.92 20.896 60.704 22.176C59.488 23.456 58.88 24.7467 58.88 26.048Z" fill="black"/>
<path d="M98.6988 24.96C100.448 23.5093 101.973 22.1973 103.275 21.024C104.597 19.8293 105.995 18.432 107.467 16.832C108.96 15.232 110.187 13.728 111.147 12.32C112.107 10.8907 112.907 9.344 113.547 7.68C114.187 5.99467 114.507 4.37333 114.507 2.816C114.507 2.45333 114.432 2.15467 114.283 1.92C114.133 1.664 113.931 1.536 113.675 1.536C112.715 1.536 111.285 2.912 109.387 5.664C107.488 8.39467 105.483 11.7973 103.371 15.872L98.6988 24.96ZM95.0508 28.48C90.6988 31.616 88.5121 33.1733 88.4908 33.152C88.4268 33.152 88.3948 33.1093 88.3948 33.024C88.3948 32.9387 88.4587 32.8533 88.5867 32.768C92.4481 29.9733 94.7521 28.2667 95.4987 27.648L101.067 17.088C101.259 16.7253 101.675 15.9253 102.315 14.688C102.955 13.4507 103.403 12.5973 103.659 12.128C103.936 11.6587 104.363 10.9013 104.939 9.856C105.536 8.81067 106.048 8.01067 106.475 7.456C106.901 6.88 107.424 6.19734 108.043 5.408C109.152 4 110.475 2.752 112.011 1.664C113.483 0.554667 114.805 0 115.979 0C116.363 0 116.64 0.16 116.811 0.48C116.981 0.799999 117.067 1.10933 117.067 1.408C117.067 4.94933 115.477 8.69334 112.299 12.64C111.232 13.9627 110.219 15.136 109.259 16.16C108.32 17.184 107.125 18.3467 105.675 19.648C103.883 21.2693 101.387 23.3813 98.1868 25.984L93.6428 35.136C94.5388 34.24 95.5308 33.376 96.6188 32.544C97.7281 31.712 98.5814 31.1147 99.1787 30.752C100.629 29.8773 101.877 29.44 102.923 29.44C103.605 29.44 104.16 29.6853 104.587 30.176C105.013 30.6667 105.227 31.3387 105.227 32.192C105.227 33.024 104.864 34.144 104.139 35.552C103.413 36.9387 102.688 38.3787 101.963 39.872C101.237 41.3653 100.875 42.6667 100.875 43.776C100.875 44.5013 101.195 44.864 101.835 44.864C102.539 44.864 103.531 44.48 104.811 43.712C106.112 42.9227 107.381 41.984 108.619 40.896C109.877 39.808 110.837 38.7627 111.499 37.76C111.584 37.632 111.669 37.568 111.755 37.568C111.84 37.568 111.883 37.6 111.883 37.664C111.883 37.728 111.861 37.8027 111.819 37.888C110.667 39.424 109.515 40.6933 108.363 41.696C107.232 42.6987 105.877 43.6587 104.299 44.576C102.741 45.4933 101.451 45.952 100.427 45.952C98.9761 45.952 98.2507 45.1627 98.2507 43.584C98.2507 42.56 98.6454 41.2587 99.4348 39.68C100.224 38.1013 101.013 36.608 101.803 35.2C102.592 33.792 102.987 32.8427 102.987 32.352C102.987 31.8613 102.859 31.4667 102.603 31.168C102.347 30.8693 102.005 30.72 101.579 30.72C100.448 30.72 98.9121 31.5733 96.9707 33.28C95.0294 34.9653 93.6854 36.3733 92.9388 37.504C90.5708 41.024 89.2054 43.6907 88.8428 45.504C88.8001 45.6747 88.5868 45.76 88.2028 45.76C87.8188 45.76 87.4988 45.792 87.2428 45.856C86.9868 45.92 86.8374 45.952 86.7947 45.952C86.4107 45.952 86.2188 45.8027 86.2188 45.504C86.2188 45.2907 86.6774 44.2773 87.5947 42.464C88.5121 40.6507 89.3334 39.0827 90.0587 37.76C92.6401 32.832 94.3041 29.7387 95.0508 28.48Z" fill="black"/>
<path d="M110.28 32.96C110.088 33.088 109.96 33.152 109.896 33.152C109.854 33.152 109.832 33.1093 109.832 33.024C109.832 32.9387 109.896 32.8533 110.024 32.768C111.39 31.8293 112.563 31.36 113.544 31.36C114.995 31.36 115.72 32.0213 115.72 33.344C115.72 33.8133 115.358 34.688 114.632 35.968C113.907 37.2267 113.182 38.5493 112.456 39.936C111.731 41.3227 111.368 42.4107 111.368 43.2C111.368 44.3093 112.115 44.864 113.608 44.864C114.334 44.864 115.283 44.5227 116.456 43.84C117.651 43.1573 118.696 42.4427 119.592 41.696C120.488 40.9493 121.278 40.2027 121.96 39.456C122.643 38.7093 123.059 38.208 123.208 37.952C123.379 37.696 123.507 37.568 123.592 37.568C123.678 37.568 123.72 37.6 123.72 37.664C123.72 37.728 123.699 37.8027 123.656 37.888C122.611 39.296 121.459 40.5547 120.2 41.664C118.835 42.9653 117.342 44.0107 115.72 44.8C114.099 45.568 112.808 45.952 111.848 45.952C110.888 45.952 110.142 45.7387 109.608 45.312C109.075 44.8853 108.808 44.2453 108.808 43.392C108.808 42.5387 109.203 41.3867 109.992 39.936C110.782 38.4853 111.571 37.1413 112.36 35.904C113.15 34.6453 113.544 33.8133 113.544 33.408C113.544 32.9813 113.448 32.6507 113.256 32.416C113.086 32.1813 112.862 32.064 112.584 32.064C111.944 32.064 111.176 32.3627 110.28 32.96ZM117.448 24.384C117.448 23.9147 117.662 23.424 118.088 22.912C118.472 22.4 118.856 22.144 119.24 22.144C119.624 22.144 119.912 22.2613 120.104 22.496C120.296 22.7093 120.392 23.0187 120.392 23.424C120.392 23.8293 120.2 24.288 119.816 24.8C119.432 25.2907 118.984 25.536 118.472 25.536C117.79 25.536 117.448 25.152 117.448 24.384Z" fill="black"/>
<path d="M121.865 33.152C121.822 33.152 121.801 33.1093 121.801 33.024C121.801 32.9387 121.854 32.8533 121.961 32.768C122.281 32.5547 122.601 32.3307 122.921 32.096C123.262 31.8613 124.596 31.552 126.921 31.168L132.105 21.568C132.361 21.0347 132.724 20.5547 133.193 20.128C133.62 19.68 134.046 19.456 134.473 19.456C134.494 19.456 134.526 19.456 134.569 19.456C134.932 19.456 135.113 19.5413 135.113 19.712C135.113 19.8827 134.58 20.8747 133.513 22.688C132.446 24.5013 130.974 27.2213 129.097 30.848L135.113 29.888C135.241 29.888 135.305 29.9093 135.305 29.952C135.305 30.08 135.145 30.24 134.825 30.432C134.526 30.624 134.292 30.72 134.121 30.72C133.95 30.72 132.148 30.9973 128.713 31.552L125.641 37.952C124.489 40.512 123.913 42.176 123.913 42.944C123.913 43.712 124.137 44.3413 124.585 44.832C125.033 45.3227 125.598 45.568 126.281 45.568C127.945 45.568 129.31 45.2693 130.377 44.672C131.465 44.0747 132.596 43.2533 133.769 42.208C134.964 41.1627 135.924 40.2347 136.649 39.424C137.396 38.592 137.833 38.08 137.961 37.888C138.11 37.6747 138.228 37.568 138.313 37.568C138.398 37.568 138.441 37.6 138.441 37.664C138.441 37.728 138.42 37.8027 138.377 37.888C137.353 39.232 136.286 40.4373 135.177 41.504C134.068 42.5493 133.097 43.3813 132.265 44C131.454 44.6187 130.43 45.152 129.193 45.6C127.977 46.048 126.74 46.272 125.481 46.272C124.244 46.272 123.262 45.9947 122.537 45.44C121.833 44.8853 121.481 44.0107 121.481 42.816C121.481 41.6213 122.1 39.936 123.337 37.76L126.409 32.064C123.721 32.5973 122.302 32.9173 122.153 33.024C122.025 33.1093 121.929 33.152 121.865 33.152Z" fill="black"/>
<path d="M146.568 40.32C148.744 38.144 149.832 36.6933 149.832 35.968C149.832 35.7973 149.746 35.712 149.576 35.712C149.149 35.712 148.146 37.248 146.568 40.32ZM145.928 31.68C144.584 31.68 143.208 32.2773 141.8 33.472C140.413 34.6667 139.293 36.096 138.44 37.76C137.586 39.424 137.16 40.9813 137.16 42.432C137.16 43.8827 137.757 44.608 138.952 44.608C140.274 44.608 141.746 44.0107 143.368 42.816C143.816 41.2373 144.733 39.5093 146.12 37.632C147.4 35.8187 148.466 34.752 149.32 34.432C148.594 32.5973 147.464 31.68 145.928 31.68ZM145.8 30.912C147.848 30.912 149.192 32.0427 149.832 34.304C150.386 34.304 150.664 34.5387 150.664 35.008C150.664 35.584 150.568 36.064 150.376 36.448C150.184 36.8107 150.034 37.088 149.928 37.28C149.842 37.4507 149.682 37.6747 149.448 37.952C149.192 38.2293 149.021 38.4213 148.936 38.528C148.061 39.5093 147.144 40.4267 146.184 41.28C145.842 42.3893 145.672 43.136 145.672 43.52C145.672 44.416 146.386 44.864 147.816 44.864C149.245 44.864 151.016 44.0107 153.128 42.304C155.261 40.5973 156.765 39.0827 157.64 37.76C157.725 37.632 157.81 37.568 157.896 37.568C157.981 37.568 158.024 37.6 158.024 37.664C158.024 37.728 158.002 37.8027 157.96 37.888C156.808 39.424 155.656 40.6933 154.504 41.696C153.373 42.6987 151.976 43.68 150.312 44.64C148.669 45.6 147.165 46.08 145.8 46.08C144.093 46.08 143.24 45.3973 143.24 44.032C143.24 43.968 143.25 43.872 143.272 43.744C143.293 43.616 143.304 43.52 143.304 43.456C140.893 44.9493 138.909 45.696 137.352 45.696C135.56 45.696 134.664 44.608 134.664 42.432C134.664 40.8533 135.218 39.168 136.328 37.376C137.458 35.5627 138.898 34.0373 140.648 32.8C142.418 31.5413 144.136 30.912 145.8 30.912Z" fill="black"/>
<path d="M143.4 60.584C144.381 61.864 145.299 62.504 146.152 62.504C146.749 62.504 147.048 62.2267 147.048 61.672C147.048 60.9467 145.832 60.584 143.4 60.584ZM145.704 59.304C146.472 59.304 147.155 59.4747 147.752 59.816C148.349 60.136 148.648 60.5947 148.648 61.192C148.648 61.768 148.349 62.2373 147.752 62.6C147.176 62.9627 146.504 63.144 145.736 63.144C144.989 63.144 144.264 62.9093 143.56 62.44C142.877 61.9707 142.355 61.3947 141.992 60.712C140.648 60.9253 139.464 61.3627 138.44 62.024C137.437 62.664 136.659 63.432 136.104 64.328C135.037 66.0987 134.504 67.9013 134.504 69.736C134.504 72.232 135.432 74.28 137.288 75.88C139.144 77.4587 141.32 78.248 143.816 78.248C146.312 78.248 148.36 77.384 149.96 75.656C151.581 73.928 152.595 71.8907 153 69.544C152.595 69.288 151.965 68.8507 151.112 68.232C150.259 67.592 149.544 67.1333 148.968 66.856C148.392 66.5573 147.859 66.408 147.368 66.408C146.877 66.408 146.472 66.5893 146.152 66.952C145.853 67.2933 145.704 67.688 145.704 68.136C145.704 68.584 145.949 69.032 146.44 69.48C146.931 69.9067 147.176 70.1413 147.176 70.184C147.176 70.312 146.877 70.376 146.28 70.376H146.024C144.616 70.376 143.912 69.7147 143.912 68.392C143.912 67.752 144.285 67.208 145.032 66.76C145.779 66.312 146.675 66.088 147.72 66.088C148.765 66.088 149.917 66.3547 151.176 66.888C152.456 67.4 153.565 67.976 154.504 68.616C155.443 69.256 156.456 69.8427 157.544 70.376C158.653 70.888 159.56 71.144 160.264 71.144C161.053 71.144 161.811 70.7173 162.536 69.864C162.664 69.736 162.749 69.6293 162.792 69.544C162.856 69.4587 162.909 69.416 162.952 69.416C163.016 69.416 163.048 69.4693 163.048 69.576C163.048 69.6827 162.835 69.9493 162.408 70.376C161.427 71.4853 160.552 72.04 159.784 72.04C158.312 72.04 156.627 71.528 154.728 70.504C154.429 71.3787 153.885 72.328 153.096 73.352C152.307 74.376 151.347 75.368 150.216 76.328C149.085 77.288 147.741 78.0773 146.184 78.696C144.627 79.336 143.059 79.656 141.48 79.656C139.048 79.656 136.893 78.856 135.016 77.256C133.139 75.6347 132.2 73.5333 132.2 70.952C132.2 68.3493 133.128 66.0773 134.984 64.136C136.84 62.1947 139.069 60.7973 141.672 59.944C141.501 59.496 141.416 58.8773 141.416 58.088C141.416 56.5307 141.864 55.144 142.76 53.928C143.677 52.712 144.733 51.8267 145.928 51.272C147.144 50.696 148.371 50.408 149.608 50.408C150.867 50.408 152.083 50.696 153.256 51.272C154.451 51.848 155.048 52.5627 155.048 53.416C155.048 53.5653 154.963 53.7573 154.792 53.992C154.621 54.2267 154.419 54.5573 154.184 54.984C153.971 55.3893 153.821 55.592 153.736 55.592C153.672 55.592 153.64 55.5493 153.64 55.464C153.64 54.44 153.053 53.5547 151.88 52.808C150.728 52.0613 149.587 51.688 148.456 51.688C146.579 51.688 145.075 52.2213 143.944 53.288C142.813 54.3547 142.248 55.72 142.248 57.384C142.248 58.1307 142.419 58.8773 142.76 59.624C143.976 59.4107 144.957 59.304 145.704 59.304Z" fill="black"/>
<path d="M15.552 78.112C16.064 78.112 17.312 78.3467 19.296 78.816C21.28 79.2853 22.8053 79.52 23.872 79.52C24.9387 79.52 25.8667 79.4773 26.656 79.392C27.4453 79.2853 27.9893 79.168 28.288 79.04C29.0133 78.72 29.5573 78.56 29.92 78.56C30.304 78.56 30.624 78.6453 30.88 78.816C31.1573 78.9653 31.296 79.0933 31.296 79.2C31.296 79.3067 31.2853 79.3813 31.264 79.424C31.264 79.4453 31.2427 79.488 31.2 79.552C31.1573 79.5947 31.104 79.6373 31.04 79.68C30.976 79.7227 30.8693 79.7973 30.72 79.904C30.592 79.9893 30.4427 80.096 30.272 80.224C29.7387 80.6293 29.2053 81.0773 28.672 81.568L5.376 103.008C6.464 102.88 7.488 102.816 8.448 102.816C9.42933 102.816 10.624 103.061 12.032 103.552C13.44 104.021 14.7733 104.608 16.032 105.312C17.2907 105.995 18.56 106.677 19.84 107.36C22.8907 109.024 25.6427 109.856 28.096 109.856C29.9307 109.856 31.488 109.472 32.768 108.704C34.048 107.936 34.688 107.253 34.688 106.656C34.688 106.443 34.752 106.336 34.88 106.336C34.9653 106.336 35.1147 106.549 35.328 106.976C35.5413 107.403 35.648 107.68 35.648 107.808C35.3067 108.64 34.7093 109.419 33.856 110.144C33.472 110.464 32.96 110.752 32.32 111.008C31.7013 111.264 31.0187 111.392 30.272 111.392C28.5867 111.392 26.688 111.04 24.576 110.336C22.4853 109.653 20.608 108.896 18.944 108.064C17.3013 107.232 15.52 106.464 13.6 105.76C11.7013 105.077 10.1013 104.736 8.8 104.736C7.49867 104.736 6.38933 104.832 5.472 105.024C4.576 105.195 3.88267 105.376 3.392 105.568C2.90133 105.739 2.528 105.824 2.272 105.824C2.03733 105.824 1.70667 105.728 1.28 105.536C0.874667 105.323 0.576 105.195 0.384 105.152C0.213333 105.109 0.106667 105.088 0.064 105.088C0.0213333 105.067 0 105.013 0 104.928C0 104.843 0.192 104.608 0.576 104.224L27.136 80.224C25.7067 80.5227 24.2667 80.672 22.816 80.672C21.3653 80.672 19.84 80.4693 18.24 80.064C16.6613 79.6587 15.1467 79.456 13.696 79.456C12.2667 79.456 11.1147 79.8613 10.24 80.672C9.81333 81.0987 9.57867 81.312 9.536 81.312C9.408 81.312 9.344 81.248 9.344 81.12C9.344 80.992 9.57867 80.6933 10.048 80.224C11.4133 78.816 13.248 78.112 15.552 78.112Z" fill="black"/>
<path d="M39.1675 84.96C40.9168 83.5093 42.4422 82.1973 43.7435 81.024C45.0662 79.8293 46.4635 78.432 47.9355 76.832C49.4288 75.232 50.6555 73.728 51.6155 72.32C52.5755 70.8907 53.3755 69.344 54.0155 67.68C54.6555 65.9947 54.9755 64.3733 54.9755 62.816C54.9755 62.4533 54.9008 62.1547 54.7515 61.92C54.6022 61.664 54.3995 61.536 54.1435 61.536C53.1835 61.536 51.7542 62.912 49.8555 65.664C47.9568 68.3947 45.9515 71.7973 43.8395 75.872L39.1675 84.96ZM35.5195 88.48C31.1675 91.616 28.9808 93.1733 28.9595 93.152C28.8955 93.152 28.8635 93.1093 28.8635 93.024C28.8635 92.9387 28.9275 92.8533 29.0555 92.768C32.9168 89.9733 35.2208 88.2667 35.9675 87.648L41.5355 77.088C41.7275 76.7253 42.1435 75.9253 42.7835 74.688C43.4235 73.4507 43.8715 72.5973 44.1275 72.128C44.4048 71.6587 44.8315 70.9013 45.4075 69.856C46.0048 68.8107 46.5168 68.0107 46.9435 67.456C47.3702 66.88 47.8928 66.1973 48.5115 65.408C49.6208 64 50.9435 62.752 52.4795 61.664C53.9515 60.5547 55.2742 60 56.4475 60C56.8315 60 57.1088 60.16 57.2795 60.48C57.4502 60.8 57.5355 61.1093 57.5355 61.408C57.5355 64.9493 55.9462 68.6933 52.7675 72.64C51.7008 73.9627 50.6875 75.136 49.7275 76.16C48.7888 77.184 47.5942 78.3467 46.1435 79.648C44.3515 81.2693 41.8555 83.3813 38.6555 85.984L34.1115 95.136C35.0075 94.24 35.9995 93.376 37.0875 92.544C38.1968 91.712 39.0502 91.1147 39.6475 90.752C41.0982 89.8773 42.3462 89.44 43.3915 89.44C44.0742 89.44 44.6288 89.6853 45.0555 90.176C45.4822 90.6667 45.6955 91.3387 45.6955 92.192C45.6955 93.024 45.3328 94.144 44.6075 95.552C43.8822 96.9387 43.1568 98.3787 42.4315 99.872C41.7062 101.365 41.3435 102.667 41.3435 103.776C41.3435 104.501 41.6635 104.864 42.3035 104.864C43.0075 104.864 43.9995 104.48 45.2795 103.712C46.5808 102.923 47.8502 101.984 49.0875 100.896C50.3462 99.808 51.3062 98.7627 51.9675 97.76C52.0528 97.632 52.1382 97.568 52.2235 97.568C52.3088 97.568 52.3515 97.6 52.3515 97.664C52.3515 97.728 52.3302 97.8027 52.2875 97.888C51.1355 99.424 49.9835 100.693 48.8315 101.696C47.7008 102.699 46.3462 103.659 44.7675 104.576C43.2102 105.493 41.9195 105.952 40.8955 105.952C39.4448 105.952 38.7195 105.163 38.7195 103.584C38.7195 102.56 39.1142 101.259 39.9035 99.68C40.6928 98.1013 41.4822 96.608 42.2715 95.2C43.0608 93.792 43.4555 92.8427 43.4555 92.352C43.4555 91.8613 43.3275 91.4667 43.0715 91.168C42.8155 90.8693 42.4742 90.72 42.0475 90.72C40.9168 90.72 39.3808 91.5733 37.4395 93.28C35.4982 94.9653 34.1542 96.3733 33.4075 97.504C31.0395 101.024 29.6742 103.691 29.3115 105.504C29.2688 105.675 29.0555 105.76 28.6715 105.76C28.2875 105.76 27.9675 105.792 27.7115 105.856C27.4555 105.92 27.3062 105.952 27.2635 105.952C26.8795 105.952 26.6875 105.803 26.6875 105.504C26.6875 105.291 27.1462 104.277 28.0635 102.464C28.9808 100.651 29.8022 99.0827 30.5275 97.76C33.1088 92.832 34.7728 89.7387 35.5195 88.48Z" fill="black"/>
<path d="M60.349 100.32C62.525 98.144 63.613 96.6933 63.613 95.968C63.613 95.7973 63.5277 95.712 63.357 95.712C62.9303 95.712 61.9277 97.248 60.349 100.32ZM59.709 91.68C58.365 91.68 56.989 92.2773 55.581 93.472C54.1943 94.6667 53.0743 96.096 52.221 97.76C51.3677 99.424 50.941 100.981 50.941 102.432C50.941 103.883 51.5383 104.608 52.733 104.608C54.0557 104.608 55.5277 104.011 57.149 102.816C57.597 101.237 58.5143 99.5093 59.901 97.632C61.181 95.8187 62.2477 94.752 63.101 94.432C62.3757 92.5973 61.245 91.68 59.709 91.68ZM59.581 90.912C61.629 90.912 62.973 92.0427 63.613 94.304C64.1677 94.304 64.445 94.5387 64.445 95.008C64.445 95.584 64.349 96.064 64.157 96.448C63.965 96.8107 63.8157 97.088 63.709 97.28C63.6237 97.4507 63.4637 97.6747 63.229 97.952C62.973 98.2293 62.8023 98.4213 62.717 98.528C61.8423 99.5093 60.925 100.427 59.965 101.28C59.6237 102.389 59.453 103.136 59.453 103.52C59.453 104.416 60.1677 104.864 61.597 104.864C63.0263 104.864 64.797 104.011 66.909 102.304C69.0423 100.597 70.5463 99.0827 71.421 97.76C71.5063 97.632 71.5917 97.568 71.677 97.568C71.7623 97.568 71.805 97.6 71.805 97.664C71.805 97.728 71.7837 97.8027 71.741 97.888C70.589 99.424 69.437 100.693 68.285 101.696C67.1543 102.699 65.757 103.68 64.093 104.64C62.4503 105.6 60.9463 106.08 59.581 106.08C57.8743 106.08 57.021 105.397 57.021 104.032C57.021 103.968 57.0317 103.872 57.053 103.744C57.0743 103.616 57.085 103.52 57.085 103.456C54.6743 104.949 52.6903 105.696 51.133 105.696C49.341 105.696 48.445 104.608 48.445 102.432C48.445 100.853 48.9997 99.168 50.109 97.376C51.2397 95.5627 52.6797 94.0373 54.429 92.8C56.1997 91.5413 57.917 90.912 59.581 90.912Z" fill="black"/>
<path d="M79.2388 81.504C79.2388 80.4373 78.9081 79.6053 78.2467 79.008C78.0974 78.88 77.9694 78.784 77.8627 78.72C77.7561 78.6347 77.7028 78.5813 77.7028 78.56L78.7268 77.92C79.3454 77.536 79.7081 77.344 79.8148 77.344C79.9214 77.344 80.0814 77.472 80.2948 77.728C80.5081 77.984 80.7107 78.3573 80.9027 78.848C81.1161 79.3173 81.2227 79.7973 81.2227 80.288C81.2227 81.6747 80.8174 83.136 80.0068 84.672C79.1961 86.1867 78.0014 87.6267 76.4228 88.992C75.7828 89.5467 75.1534 90.0053 74.5348 90.368C73.9374 90.7307 73.5534 90.912 73.3828 90.912C73.2334 90.912 73.1588 90.8907 73.1588 90.848C73.1588 90.8053 73.2441 90.752 73.4147 90.688C73.5854 90.6027 73.9054 90.3893 74.3747 90.048C74.8654 89.7067 75.3987 89.248 75.9747 88.672C78.1507 86.496 79.2388 84.1067 79.2388 81.504Z" fill="black"/>
<path d="M80.4555 103.584C69.4475 111.691 61.7248 118.368 57.2875 123.616C55.8582 125.323 54.8022 126.688 54.1195 127.712C53.4368 128.757 52.9035 129.781 52.5195 130.784C52.1355 131.808 51.9222 132.523 51.8795 132.928C51.8155 133.355 51.7835 133.835 51.7835 134.368C51.7835 134.923 51.8368 135.595 51.9435 136.384C52.0502 137.173 52.2208 138.037 52.4555 138.976C52.6688 139.936 53.0208 140.736 53.5115 141.376C54.0022 142.037 54.5782 142.368 55.2395 142.368C56.1568 142.368 57.5008 141.696 59.2715 140.352C61.0208 139.029 62.3008 137.717 63.1115 136.416C64.8822 133.664 67.7728 128.299 71.7835 120.32C75.7728 112.341 78.6635 106.763 80.4555 103.584ZM94.8555 92.768C95.0475 92.64 95.1648 92.576 95.2075 92.576C95.2715 92.576 95.3035 92.6187 95.3035 92.704C95.3035 92.7893 95.2395 92.8747 95.1115 92.96C93.7035 93.8347 90.0982 96.3947 84.2955 100.64C72.0502 123.381 65.1595 135.669 63.6235 137.504C62.0875 139.36 60.2742 140.896 58.1835 142.112C56.0715 143.349 54.6208 143.968 53.8315 143.968C53.0208 143.968 52.3382 143.627 51.7835 142.944C51.2075 142.304 50.7808 141.451 50.5035 140.384C49.9915 138.443 49.7355 136.395 49.7355 134.24C49.7355 131.893 50.7595 129.333 52.8075 126.56C53.8315 125.195 54.9195 123.861 56.0715 122.56C57.2022 121.28 58.5995 119.904 60.2635 118.432C61.9062 116.96 63.3995 115.659 64.7435 114.528C66.0662 113.397 67.6555 112.128 69.5115 110.72C71.3462 109.333 72.8182 108.235 73.9275 107.424C75.0155 106.635 76.3808 105.664 78.0235 104.512C79.6448 103.339 80.6902 102.581 81.1595 102.24C82.8875 98.6347 86.0235 92.5547 90.5675 84C95.1115 75.424 98.4822 69.4933 100.679 66.208C102.877 62.9227 104.829 60.64 106.535 59.36C108.242 58.08 110.088 57.44 112.072 57.44C112.754 57.44 113.33 57.6747 113.799 58.144C114.525 58.912 114.888 59.7653 114.888 60.704C114.888 61.6427 114.781 62.4107 114.568 63.008C114.354 63.584 113.992 64.288 113.479 65.12C113.309 65.4613 112.893 65.7813 112.231 66.08C111.869 66.2293 111.623 66.304 111.495 66.304C111.432 66.304 111.4 66.2827 111.4 66.24C111.4 66.2187 111.41 66.1867 111.432 66.144C111.922 65.3547 112.253 64.6827 112.424 64.128C112.616 63.552 112.712 62.8373 112.712 61.984C112.712 61.1307 112.456 60.3733 111.944 59.712C111.432 59.0507 110.823 58.72 110.119 58.72C109.437 58.72 108.775 58.8587 108.135 59.136C107.517 59.4133 106.824 59.9573 106.056 60.768C105.309 61.5573 104.573 62.464 103.848 63.488C103.144 64.4907 102.258 65.9413 101.191 67.84C99.1648 71.4027 96.7328 75.9787 93.8955 81.568L84.8075 99.616L94.8555 92.768Z" fill="black"/>
<path d="M104.724 100.32C106.9 98.144 107.988 96.6933 107.988 95.968C107.988 95.7973 107.903 95.712 107.732 95.712C107.305 95.712 106.303 97.248 104.724 100.32ZM104.084 91.68C102.74 91.68 101.364 92.2773 99.956 93.472C98.5693 94.6667 97.4493 96.096 96.596 97.76C95.7427 99.424 95.316 100.981 95.316 102.432C95.316 103.883 95.9133 104.608 97.108 104.608C98.4307 104.608 99.9027 104.011 101.524 102.816C101.972 101.237 102.889 99.5093 104.276 97.632C105.556 95.8187 106.623 94.752 107.476 94.432C106.751 92.5973 105.62 91.68 104.084 91.68ZM103.956 90.912C106.004 90.912 107.348 92.0427 107.988 94.304C108.543 94.304 108.82 94.5387 108.82 95.008C108.82 95.584 108.724 96.064 108.532 96.448C108.34 96.8107 108.191 97.088 108.084 97.28C107.999 97.4507 107.839 97.6747 107.604 97.952C107.348 98.2293 107.177 98.4213 107.092 98.528C106.217 99.5093 105.3 100.427 104.34 101.28C103.999 102.389 103.828 103.136 103.828 103.52C103.828 104.416 104.543 104.864 105.972 104.864C107.401 104.864 109.172 104.011 111.284 102.304C113.417 100.597 114.921 99.0827 115.796 97.76C115.881 97.632 115.967 97.568 116.052 97.568C116.137 97.568 116.18 97.6 116.18 97.664C116.18 97.728 116.159 97.8027 116.116 97.888C114.964 99.424 113.812 100.693 112.66 101.696C111.529 102.699 110.132 103.68 108.468 104.64C106.825 105.6 105.321 106.08 103.956 106.08C102.249 106.08 101.396 105.397 101.396 104.032C101.396 103.968 101.407 103.872 101.428 103.744C101.449 103.616 101.46 103.52 101.46 103.456C99.0493 104.949 97.0653 105.696 95.508 105.696C93.716 105.696 92.82 104.608 92.82 102.432C92.82 100.853 93.3747 99.168 94.484 97.376C95.6147 95.5627 97.0547 94.0373 98.804 92.8C100.575 91.5413 102.292 90.912 103.956 90.912Z" fill="black"/>
<path d="M117.918 91.36C118.536 91.36 119.006 91.5307 119.326 91.872C119.667 92.2133 119.838 92.5653 119.838 92.928C119.838 93.2907 119.752 93.6853 119.582 94.112C119.411 94.5387 119.23 94.9333 119.038 95.296C118.846 95.6587 118.632 96.0427 118.398 96.448C118.184 96.832 118.067 97.056 118.046 97.12C119.326 95.648 120.904 94.24 122.782 92.896C124.126 91.9573 125.875 91.0613 128.03 90.208C128.286 90.1227 128.446 90.08 128.51 90.08C128.574 90.08 128.606 90.112 128.606 90.176C128.606 90.24 128.584 90.2933 128.542 90.336C128.52 90.3573 128.488 90.3787 128.446 90.4C128.403 90.4213 128.275 90.4853 128.062 90.592C127.87 90.6987 127.432 91.0507 126.75 91.648C126.067 92.224 125.726 92.736 125.726 93.184C125.726 93.632 125.918 93.856 126.302 93.856C126.792 93.856 127.539 93.4933 128.542 92.768C128.734 92.64 128.851 92.576 128.894 92.576C128.958 92.576 128.99 92.6187 128.99 92.704C128.99 92.7893 128.926 92.8747 128.798 92.96C127.923 93.6 127.23 94.0373 126.718 94.272C126.227 94.5067 125.736 94.624 125.246 94.624C124.755 94.624 124.36 94.5387 124.062 94.368C123.763 94.1973 123.614 93.952 123.614 93.632C123.614 93.2907 123.742 92.96 123.998 92.64C123.016 93.1947 121.864 94.112 120.542 95.392C119.219 96.6507 117.896 98.1653 116.574 99.936C114.611 103.563 113.502 105.525 113.246 105.824C112.99 106.123 112.798 106.272 112.67 106.272C112.563 106.272 112.478 106.24 112.414 106.176C112.35 106.133 112.264 106.027 112.158 105.856C112.072 105.685 111.944 105.483 111.774 105.248C111.603 104.992 111.518 104.789 111.518 104.64C111.518 104.469 111.667 104.16 111.966 103.712C112.264 103.243 112.606 102.795 112.99 102.368C113.395 101.92 113.736 101.515 114.014 101.152C115.763 97.8667 116.83 95.8293 117.214 95.04C117.598 94.2293 117.79 93.6427 117.79 93.28C117.79 92.896 117.694 92.608 117.502 92.416C117.331 92.224 117.032 92.128 116.606 92.128C116.179 92.128 115.55 92.4053 114.718 92.96C114.526 93.088 114.398 93.152 114.334 93.152C114.291 93.152 114.27 93.1093 114.27 93.024C114.27 92.9387 114.334 92.8533 114.462 92.768C115.827 91.8293 116.979 91.36 117.918 91.36Z" fill="black"/>
<path d="M146.508 102.112C147.446 101.259 148.236 100.469 148.876 99.744C149.516 99.0187 149.953 98.4747 150.188 98.112C150.443 97.7493 150.614 97.568 150.699 97.568C150.785 97.568 150.827 97.6 150.827 97.664C150.827 97.728 150.806 97.8027 150.764 97.888C149.505 99.9147 147.67 101.835 145.26 103.648C142.849 105.44 140.587 106.336 138.475 106.336C137.366 106.336 136.811 105.845 136.811 104.864C136.811 104.224 136.982 103.456 137.324 102.56C136.001 103.541 134.582 104.395 133.068 105.12C131.574 105.845 130.262 106.208 129.132 106.208C128.62 106.208 128.118 106.048 127.628 105.728C127.137 105.408 126.892 104.864 126.892 104.096C126.892 103.307 127.745 101.419 129.452 98.432C131.158 95.424 132.012 93.6213 132.012 93.024C132.012 92.4267 131.681 92.128 131.02 92.128C130.38 92.128 129.643 92.4053 128.811 92.96C128.619 93.088 128.492 93.152 128.428 93.152C128.385 93.152 128.363 93.1093 128.363 93.024C128.363 92.9387 128.427 92.8533 128.555 92.768C129.921 91.8293 131.094 91.36 132.076 91.36C133.484 91.36 134.188 91.9787 134.188 93.216C134.188 93.856 133.377 95.616 131.755 98.496C130.134 101.355 129.324 103.04 129.324 103.552C129.324 104.064 129.505 104.427 129.867 104.64C130.23 104.832 130.625 104.928 131.051 104.928C132.139 104.928 133.355 104.501 134.699 103.648C136.043 102.773 137.089 101.941 137.835 101.152C138.305 100.128 139.137 98.5493 140.331 96.416C141.526 94.2613 142.273 93.0027 142.572 92.64C143.318 91.8293 144.001 91.424 144.62 91.424C144.79 91.424 144.876 91.552 144.876 91.808C144.876 92.064 144.374 93.0773 143.372 94.848C142.39 96.5973 141.292 98.2507 140.076 99.808C139.35 101.387 138.988 102.731 138.988 103.84C138.988 104.181 139.083 104.469 139.275 104.704C139.467 104.939 139.713 105.056 140.012 105.056C141.078 105.056 142.187 104.779 143.339 104.224C144.513 103.648 145.569 102.944 146.508 102.112Z" fill="black"/>
<path d="M162.015 95.264L160.287 98.848C162.463 96.4587 165.087 93.2907 168.159 89.344C171.252 85.3973 173.492 82.2613 174.879 79.936C176.265 77.6107 177.684 74.848 179.135 71.648C180.607 68.448 181.343 66.208 181.343 64.928C181.343 64.3307 181.151 64.032 180.767 64.032C180.02 64.032 179.103 64.6187 178.015 65.792C176.927 66.9653 175.828 68.4693 174.719 70.304C172.777 73.5467 171.124 76.576 169.759 79.392L162.335 94.688C162.377 94.8587 162.399 95.0293 162.399 95.2C162.399 95.3707 162.335 95.456 162.207 95.456C162.143 95.456 162.079 95.392 162.015 95.264ZM161.119 93.28C160.436 92.2133 159.455 91.68 158.175 91.68C156.916 91.68 155.583 92.2773 154.175 93.472C152.788 94.6667 151.668 96.096 150.815 97.76C149.961 99.424 149.535 100.981 149.535 102.432C149.535 103.883 150.132 104.608 151.327 104.608C152.927 104.608 154.953 103.584 157.407 101.536C157.769 100.235 159.007 97.4827 161.119 93.28ZM161.439 92.576L167.519 80.352C169.396 76.512 170.655 74.0907 171.295 73.088C171.956 72.0853 172.628 71.0827 173.311 70.08C174.015 69.056 174.665 68.224 175.263 67.584C176.905 65.856 178.42 64.5867 179.807 63.776C180.532 63.3493 181.129 63.136 181.599 63.136C182.367 63.136 182.751 63.6693 182.751 64.736C182.751 67.168 182.121 69.728 180.863 72.416C179.604 75.0827 177.908 77.9413 175.775 80.992C174.324 83.104 171.775 86.3253 168.127 90.656C164.5 94.9867 161.759 98.08 159.903 99.936C159.476 101.024 159.263 101.984 159.263 102.816C159.263 104.181 160.02 104.864 161.535 104.864C163.049 104.864 164.884 104.021 167.039 102.336C169.215 100.629 170.74 99.104 171.615 97.76C171.7 97.632 171.785 97.568 171.871 97.568C171.956 97.568 171.999 97.6 171.999 97.664C171.999 97.728 171.977 97.8027 171.935 97.888C170.783 99.424 169.631 100.693 168.479 101.696C167.348 102.699 165.993 103.659 164.415 104.576C162.857 105.493 161.524 105.952 160.415 105.952C159.327 105.952 158.505 105.707 157.951 105.216C157.417 104.704 157.151 104.032 157.151 103.2C157.151 102.816 157.193 102.453 157.279 102.112C154.399 104.501 151.881 105.696 149.727 105.696C147.935 105.696 147.039 104.608 147.039 102.432C147.039 100.853 147.593 99.168 148.703 97.376C149.833 95.5627 151.273 94.0373 153.023 92.8C154.793 91.5413 156.447 90.912 157.983 90.912C159.519 90.912 160.671 91.4667 161.439 92.576Z" fill="black"/>
<path d="M171.155 92.96C170.963 93.088 170.835 93.152 170.771 93.152C170.729 93.152 170.707 93.1093 170.707 93.024C170.707 92.9387 170.771 92.8533 170.899 92.768C172.265 91.8293 173.438 91.36 174.419 91.36C175.87 91.36 176.595 92.0213 176.595 93.344C176.595 93.8133 176.233 94.688 175.507 95.968C174.782 97.2267 174.057 98.5493 173.331 99.936C172.606 101.323 172.243 102.411 172.243 103.2C172.243 104.309 172.99 104.864 174.483 104.864C175.209 104.864 176.158 104.523 177.331 103.84C178.526 103.157 179.571 102.443 180.467 101.696C181.363 100.949 182.153 100.203 182.835 99.456C183.518 98.7093 183.934 98.208 184.083 97.952C184.254 97.696 184.382 97.568 184.467 97.568C184.553 97.568 184.595 97.6 184.595 97.664C184.595 97.728 184.574 97.8027 184.531 97.888C183.486 99.296 182.334 100.555 181.075 101.664C179.71 102.965 178.217 104.011 176.595 104.8C174.974 105.568 173.683 105.952 172.723 105.952C171.763 105.952 171.017 105.739 170.483 105.312C169.95 104.885 169.683 104.245 169.683 103.392C169.683 102.539 170.078 101.387 170.867 99.936C171.657 98.4853 172.446 97.1413 173.235 95.904C174.025 94.6453 174.419 93.8133 174.419 93.408C174.419 92.9813 174.323 92.6507 174.131 92.416C173.961 92.1813 173.737 92.064 173.459 92.064C172.819 92.064 172.051 92.3627 171.155 92.96ZM178.323 84.384C178.323 83.9147 178.537 83.424 178.963 82.912C179.347 82.4 179.731 82.144 180.115 82.144C180.499 82.144 180.787 82.2613 180.979 82.496C181.171 82.7093 181.267 83.0187 181.267 83.424C181.267 83.8293 181.075 84.288 180.691 84.8C180.307 85.2907 179.859 85.536 179.347 85.536C178.665 85.536 178.323 85.152 178.323 84.384Z" fill="black"/>
<path d="M185.684 92C184.937 92 184.084 92.32 183.124 92.96C182.932 93.088 182.804 93.152 182.74 93.152C182.697 93.152 182.676 93.1093 182.676 93.024C182.676 92.9387 182.74 92.8533 182.868 92.768C184.34 91.6587 185.684 91.104 186.9 91.104C187.433 91.104 187.849 91.2533 188.148 91.552C188.468 91.8507 188.628 92.224 188.628 92.672C188.628 93.12 188.201 94.112 187.348 95.648C190.783 92.704 193.449 91.232 195.348 91.232C196.009 91.232 196.479 91.4667 196.756 91.936C197.055 92.384 197.204 92.96 197.204 93.664C197.204 94.3467 196.479 96.0213 195.028 98.688C193.577 101.355 192.852 103.072 192.852 103.84C192.852 104.181 192.948 104.469 193.14 104.704C193.332 104.939 193.577 105.056 193.876 105.056C195.775 105.056 198.1 103.861 200.852 101.472C201.577 100.832 202.271 100.149 202.932 99.424C203.615 98.6987 204.031 98.208 204.18 97.952C204.351 97.696 204.479 97.568 204.564 97.568C204.649 97.568 204.692 97.6 204.692 97.664C204.692 97.728 204.671 97.8027 204.628 97.888C203.86 98.912 202.697 100.192 201.14 101.728C199.604 103.243 198.004 104.395 196.34 105.184C194.697 105.952 193.321 106.336 192.212 106.336C191.103 106.336 190.548 105.845 190.548 104.864C190.548 103.989 190.911 102.827 191.636 101.376C192.361 99.904 193.087 98.4853 193.812 97.12C194.537 95.7547 194.9 94.7307 194.9 94.048C194.9 92.9813 194.495 92.448 193.684 92.448C192.937 92.448 191.636 93.12 189.78 94.464C187.945 95.7867 186.943 96.608 186.772 96.928L182.1 105.44C181.993 105.611 181.791 105.717 181.492 105.76C181.215 105.824 180.916 105.909 180.596 106.016C180.297 106.144 180.095 106.208 179.988 106.208C179.732 106.208 179.604 106.101 179.604 105.888C179.604 105.803 180.223 104.715 181.46 102.624C184.788 96.9067 186.452 93.6427 186.452 92.832C186.452 92.2773 186.196 92 185.684 92Z" fill="black"/>
<path d="M26.496 140.696V129.476H22.956V128.216H31.596V129.476H27.916V140.696H26.496Z" fill="black"/>
<path d="M38.796 127.396H40.376V127.536C40.296 127.616 40.2427 127.703 40.216 127.796C40.2027 127.889 40.196 128.049 40.196 128.276V133.176C40.436 132.803 40.716 132.483 41.036 132.216C41.3693 131.936 41.716 131.723 42.076 131.576C42.4493 131.416 42.8227 131.336 43.196 131.336C43.7427 131.336 44.2227 131.463 44.636 131.716C45.0627 131.969 45.3893 132.376 45.616 132.936C45.856 133.496 45.976 134.236 45.976 135.156V140.696H44.576V135.196C44.576 134.556 44.5027 134.049 44.356 133.676C44.2093 133.289 44.0093 133.016 43.756 132.856C43.5027 132.683 43.216 132.596 42.896 132.596C42.656 132.596 42.4093 132.636 42.156 132.716C41.9027 132.796 41.656 132.916 41.416 133.076C41.1893 133.236 40.9827 133.436 40.796 133.676C40.6093 133.903 40.4627 134.163 40.356 134.456C40.2493 134.749 40.196 135.076 40.196 135.436V140.696H38.796V127.396Z" fill="black"/>
<path d="M57.776 140.896C57.1093 140.896 56.5027 140.796 55.956 140.596C55.4093 140.383 54.936 140.076 54.536 139.676C54.1493 139.276 53.8493 138.783 53.636 138.196C53.4227 137.596 53.316 136.916 53.316 136.156C53.316 135.383 53.4227 134.696 53.636 134.096C53.8627 133.496 54.1627 132.996 54.536 132.596C54.9227 132.183 55.3693 131.869 55.876 131.656C56.396 131.443 56.9427 131.336 57.516 131.336C58.036 131.336 58.5227 131.423 58.976 131.596C59.4293 131.769 59.8227 132.036 60.156 132.396C60.4893 132.743 60.7493 133.189 60.936 133.736C61.136 134.283 61.236 134.929 61.236 135.676C61.236 135.783 61.2293 135.896 61.216 136.016C61.216 136.123 61.2093 136.229 61.196 136.336H54.696C54.7227 136.923 54.8227 137.436 54.996 137.876C55.1693 138.303 55.396 138.656 55.676 138.936C55.956 139.203 56.276 139.403 56.636 139.536C57.0093 139.669 57.4027 139.736 57.816 139.736C58.136 139.736 58.436 139.703 58.716 139.636C58.996 139.556 59.256 139.443 59.496 139.296C59.7493 139.136 59.976 138.943 60.176 138.716L60.976 139.496C60.7227 139.803 60.4293 140.063 60.096 140.276C59.776 140.489 59.4227 140.643 59.036 140.736C58.6493 140.843 58.2293 140.896 57.776 140.896ZM54.756 135.216H59.776C59.776 134.789 59.716 134.409 59.596 134.076C59.4893 133.729 59.3293 133.436 59.116 133.196C58.916 132.943 58.6693 132.756 58.376 132.636C58.096 132.503 57.776 132.436 57.416 132.436C57.096 132.436 56.7893 132.489 56.496 132.596C56.216 132.703 55.956 132.876 55.716 133.116C55.476 133.343 55.2693 133.629 55.096 133.976C54.936 134.323 54.8227 134.736 54.756 135.216Z" fill="black"/>
<path d="M84.676 140.696L82.676 128.236H83.976L85.316 136.656L87.316 129.156H87.756L89.776 136.696L90.916 128.236H92.096L90.116 140.696H89.576L87.436 132.556L85.256 140.696H84.676Z" fill="black"/>
<path d="M102.776 140.896C102.109 140.896 101.503 140.796 100.956 140.596C100.409 140.383 99.936 140.076 99.536 139.676C99.1493 139.276 98.8493 138.783 98.636 138.196C98.4227 137.596 98.316 136.916 98.316 136.156C98.316 135.383 98.4227 134.696 98.636 134.096C98.8627 133.496 99.1627 132.996 99.536 132.596C99.9227 132.183 100.369 131.869 100.876 131.656C101.396 131.443 101.943 131.336 102.516 131.336C103.036 131.336 103.523 131.423 103.976 131.596C104.429 131.769 104.823 132.036 105.156 132.396C105.489 132.743 105.749 133.189 105.936 133.736C106.136 134.283 106.236 134.929 106.236 135.676C106.236 135.783 106.229 135.896 106.216 136.016C106.216 136.123 106.209 136.229 106.196 136.336H99.696C99.7227 136.923 99.8227 137.436 99.996 137.876C100.169 138.303 100.396 138.656 100.676 138.936C100.956 139.203 101.276 139.403 101.636 139.536C102.009 139.669 102.403 139.736 102.816 139.736C103.136 139.736 103.436 139.703 103.716 139.636C103.996 139.556 104.256 139.443 104.496 139.296C104.749 139.136 104.976 138.943 105.176 138.716L105.976 139.496C105.723 139.803 105.429 140.063 105.096 140.276C104.776 140.489 104.423 140.643 104.036 140.736C103.649 140.843 103.229 140.896 102.776 140.896ZM99.756 135.216H104.776C104.776 134.789 104.716 134.409 104.596 134.076C104.489 133.729 104.329 133.436 104.116 133.196C103.916 132.943 103.669 132.756 103.376 132.636C103.096 132.503 102.776 132.436 102.416 132.436C102.096 132.436 101.789 132.489 101.496 132.596C101.216 132.703 100.956 132.876 100.716 133.116C100.476 133.343 100.269 133.629 100.096 133.976C99.936 134.323 99.8227 134.736 99.756 135.216Z" fill="black"/>
<path d="M117.016 140.896C116.549 140.896 116.089 140.796 115.636 140.596C115.196 140.396 114.789 140.096 114.416 139.696C114.056 139.296 113.769 138.789 113.556 138.176C113.343 137.563 113.236 136.849 113.236 136.036C113.236 135.196 113.349 134.483 113.576 133.896C113.803 133.296 114.103 132.809 114.476 132.436C114.849 132.049 115.263 131.769 115.716 131.596C116.169 131.409 116.629 131.316 117.096 131.316C117.523 131.316 117.903 131.383 118.236 131.516C118.583 131.649 118.883 131.836 119.136 132.076C119.403 132.303 119.609 132.576 119.756 132.896V127.396H121.276V127.536C121.196 127.616 121.143 127.703 121.116 127.796C121.103 127.889 121.096 128.049 121.096 128.276L121.116 139.276C121.116 139.516 121.123 139.756 121.136 139.996C121.163 140.223 121.223 140.456 121.316 140.696H119.896C119.829 140.536 119.783 140.376 119.756 140.216C119.729 140.056 119.709 139.903 119.696 139.756C119.696 139.596 119.696 139.436 119.696 139.276C119.509 139.596 119.283 139.883 119.016 140.136C118.749 140.376 118.449 140.563 118.116 140.696C117.783 140.829 117.416 140.896 117.016 140.896ZM117.236 139.636C117.676 139.636 118.049 139.549 118.356 139.376C118.663 139.189 118.909 138.936 119.096 138.616C119.283 138.283 119.416 137.903 119.496 137.476C119.589 137.036 119.636 136.569 119.636 136.076C119.636 135.396 119.549 134.789 119.376 134.256C119.203 133.709 118.929 133.283 118.556 132.976C118.183 132.656 117.703 132.496 117.116 132.496C116.716 132.496 116.356 132.576 116.036 132.736C115.729 132.883 115.469 133.103 115.256 133.396C115.056 133.689 114.903 134.043 114.796 134.456C114.689 134.856 114.636 135.309 114.636 135.816C114.636 136.576 114.736 137.243 114.936 137.816C115.136 138.389 115.429 138.836 115.816 139.156C116.203 139.476 116.676 139.636 117.236 139.636Z" fill="black"/>
<path d="M132.016 140.896C131.549 140.896 131.089 140.796 130.636 140.596C130.196 140.396 129.789 140.096 129.416 139.696C129.056 139.296 128.769 138.789 128.556 138.176C128.343 137.563 128.236 136.849 128.236 136.036C128.236 135.196 128.349 134.483 128.576 133.896C128.803 133.296 129.103 132.809 129.476 132.436C129.849 132.049 130.263 131.769 130.716 131.596C131.169 131.409 131.629 131.316 132.096 131.316C132.523 131.316 132.903 131.383 133.236 131.516C133.583 131.649 133.883 131.836 134.136 132.076C134.403 132.303 134.609 132.576 134.756 132.896V127.396H136.276V127.536C136.196 127.616 136.143 127.703 136.116 127.796C136.103 127.889 136.096 128.049 136.096 128.276L136.116 139.276C136.116 139.516 136.123 139.756 136.136 139.996C136.163 140.223 136.223 140.456 136.316 140.696H134.896C134.829 140.536 134.783 140.376 134.756 140.216C134.729 140.056 134.709 139.903 134.696 139.756C134.696 139.596 134.696 139.436 134.696 139.276C134.509 139.596 134.283 139.883 134.016 140.136C133.749 140.376 133.449 140.563 133.116 140.696C132.783 140.829 132.416 140.896 132.016 140.896ZM132.236 139.636C132.676 139.636 133.049 139.549 133.356 139.376C133.663 139.189 133.909 138.936 134.096 138.616C134.283 138.283 134.416 137.903 134.496 137.476C134.589 137.036 134.636 136.569 134.636 136.076C134.636 135.396 134.549 134.789 134.376 134.256C134.203 133.709 133.929 133.283 133.556 132.976C133.183 132.656 132.703 132.496 132.116 132.496C131.716 132.496 131.356 132.576 131.036 132.736C130.729 132.883 130.469 133.103 130.256 133.396C130.056 133.689 129.903 134.043 129.796 134.456C129.689 134.856 129.636 135.309 129.636 135.816C129.636 136.576 129.736 137.243 129.936 137.816C130.136 138.389 130.429 138.836 130.816 139.156C131.203 139.476 131.676 139.636 132.236 139.636Z" fill="black"/>
<path d="M144.336 140.696V139.536H146.676V132.716H144.456V131.556H148.116V139.536H150.256V140.696H144.336ZM147.316 129.636C147.036 129.636 146.796 129.536 146.596 129.336C146.396 129.136 146.296 128.896 146.296 128.616C146.296 128.323 146.389 128.076 146.576 127.876C146.776 127.676 147.023 127.576 147.316 127.576C147.596 127.576 147.836 127.683 148.036 127.896C148.249 128.096 148.356 128.336 148.356 128.616C148.356 128.896 148.249 129.136 148.036 129.336C147.836 129.536 147.596 129.636 147.316 129.636Z" fill="black"/>
<path d="M158.776 140.696V131.556H160.176V133.176C160.416 132.803 160.696 132.483 161.016 132.216C161.336 131.936 161.689 131.723 162.076 131.576C162.463 131.416 162.863 131.336 163.276 131.336C163.783 131.336 164.236 131.463 164.636 131.716C165.036 131.969 165.356 132.376 165.596 132.936C165.836 133.496 165.956 134.236 165.956 135.156V140.696H164.556V135.196C164.556 134.556 164.483 134.049 164.336 133.676C164.189 133.289 163.989 133.016 163.736 132.856C163.483 132.683 163.196 132.596 162.876 132.596C162.569 132.596 162.256 132.663 161.936 132.796C161.629 132.929 161.343 133.123 161.076 133.376C160.809 133.616 160.589 133.909 160.416 134.256C160.256 134.603 160.176 134.996 160.176 135.436V140.696H158.776Z" fill="black"/>
<path d="M177.276 144.136C176.636 144.136 176.056 144.083 175.536 143.976C175.029 143.883 174.589 143.736 174.216 143.536C173.856 143.349 173.576 143.109 173.376 142.816C173.189 142.523 173.096 142.176 173.096 141.776C173.096 141.403 173.176 141.069 173.336 140.776C173.496 140.483 173.703 140.243 173.956 140.056C174.223 139.856 174.509 139.709 174.816 139.616L175.416 139.976C175.176 140.123 174.983 140.269 174.836 140.416C174.689 140.563 174.583 140.729 174.516 140.916C174.449 141.116 174.416 141.349 174.416 141.616C174.416 141.843 174.483 142.043 174.616 142.216C174.749 142.403 174.936 142.556 175.176 142.676C175.429 142.796 175.729 142.889 176.076 142.956C176.436 143.023 176.843 143.056 177.296 143.056C177.909 143.056 178.403 142.989 178.776 142.856C179.163 142.736 179.449 142.563 179.636 142.336C179.823 142.123 179.916 141.876 179.916 141.596C179.916 141.303 179.863 141.063 179.756 140.876C179.649 140.689 179.429 140.549 179.096 140.456C178.763 140.363 178.256 140.316 177.576 140.316C177.109 140.316 176.683 140.296 176.296 140.256C175.909 140.216 175.563 140.149 175.256 140.056C174.949 139.963 174.689 139.849 174.476 139.716C174.276 139.569 174.123 139.396 174.016 139.196C173.909 138.996 173.856 138.763 173.856 138.496C173.856 138.149 173.949 137.816 174.136 137.496C174.336 137.176 174.603 136.869 174.936 136.576L175.616 137.116C175.483 137.263 175.376 137.396 175.296 137.516C175.216 137.623 175.156 137.729 175.116 137.836C175.089 137.929 175.076 138.036 175.076 138.156C175.076 138.369 175.156 138.543 175.316 138.676C175.489 138.809 175.783 138.909 176.196 138.976C176.609 139.029 177.169 139.056 177.876 139.056C178.583 139.056 179.156 139.116 179.596 139.236C180.036 139.343 180.369 139.503 180.596 139.716C180.836 139.929 181.003 140.176 181.096 140.456C181.189 140.736 181.236 141.043 181.236 141.376C181.236 141.736 181.163 142.076 181.016 142.396C180.883 142.729 180.663 143.023 180.356 143.276C180.049 143.543 179.643 143.749 179.136 143.896C178.629 144.056 178.009 144.136 177.276 144.136ZM176.856 137.596C176.203 137.596 175.636 137.456 175.156 137.176C174.676 136.883 174.303 136.496 174.036 136.016C173.783 135.523 173.656 134.983 173.656 134.396C173.656 133.809 173.783 133.276 174.036 132.796C174.303 132.316 174.676 131.936 175.156 131.656C175.636 131.363 176.203 131.216 176.856 131.216C177.523 131.216 178.089 131.363 178.556 131.656C179.036 131.936 179.403 132.316 179.656 132.796C179.923 133.276 180.056 133.809 180.056 134.396C180.056 134.983 179.923 135.523 179.656 136.016C179.403 136.496 179.036 136.883 178.556 137.176C178.089 137.456 177.523 137.596 176.856 137.596ZM176.856 136.396C177.243 136.396 177.583 136.309 177.876 136.136C178.183 135.949 178.423 135.703 178.596 135.396C178.769 135.089 178.856 134.756 178.856 134.396C178.856 134.023 178.769 133.689 178.596 133.396C178.423 133.089 178.183 132.849 177.876 132.676C177.583 132.489 177.243 132.396 176.856 132.396C176.469 132.396 176.123 132.489 175.816 132.676C175.523 132.849 175.289 133.089 175.116 133.396C174.943 133.689 174.856 134.023 174.856 134.396C174.856 134.756 174.943 135.089 175.116 135.396C175.289 135.703 175.523 135.949 175.816 136.136C176.123 136.309 176.469 136.396 176.856 136.396ZM179.516 133.036L178.956 132.376C179.343 131.989 179.743 131.709 180.156 131.536C180.583 131.349 181.083 131.276 181.656 131.316L181.836 132.496C181.396 132.456 180.983 132.469 180.596 132.536C180.209 132.603 179.849 132.769 179.516 133.036Z" fill="black"/>
</svg>
